<svg version="1.1" id="Layer_1" xmlns="http://www.w3.org/2000/svg" xmlns:xlink="http://www.w3.org/1999/xlink" x="0px" y="0px"
	 width="100%" viewBox="0 0 656 672" enable-background="new 0 0 656 672" xml:space="preserve">
<path fill="#2e4057" opacity="1.000000" stroke="none" 
	d="
M109.652817,50.072296 
	C109.828705,46.617477 109.229065,43.600170 110.295380,40.152012 
	C117.322739,42.212894 122.966301,46.707447 129.081284,50.180656 
	C150.452362,62.319107 171.729492,74.623604 193.004288,86.930763 
	C213.126022,98.570892 233.175873,110.335266 253.300964,121.969551 
	C277.473663,135.943756 301.741943,149.753754 325.839539,163.855743 
	C329.565186,166.035995 332.198456,164.460526 335.018555,162.838715 
	C350.722351,153.807602 366.356689,144.655869 382.045593,135.598724 
	C405.072296,122.305473 428.142456,109.087509 451.161316,95.780716 
	C470.874298,84.384964 490.532227,72.894028 510.231842,61.475040 
	C521.875122,54.725918 533.548950,48.029411 545.219421,41.327309 
	C546.216187,40.754890 547.253418,40.171444 548.611267,40.475883 
	C549.869019,42.210888 549.312073,44.261784 549.315979,46.167507 
	C549.363098,69.163063 549.410828,92.159058 549.293884,115.154099 
	C549.271912,119.481010 550.014587,120.951347 554.982239,119.825317 
	C579.219666,114.331306 603.561340,109.296524 627.869324,104.114441 
	C628.334045,104.015366 628.838318,104.102043 629.313477,104.102043 
	C630.837585,105.683937 630.311218,107.605865 630.311584,109.351860 
	C630.340515,252.658051 630.326355,395.964233 630.413818,539.270386 
	C630.416321,543.328735 629.295532,544.925415 625.083130,545.804138 
	C589.753235,553.173889 554.481079,560.821960 519.208313,568.463440 
	C498.526093,572.943970 477.899597,577.683716 457.202850,582.094971 
	C427.961670,588.327393 398.670929,594.326782 369.417358,600.501465 
	C356.953705,603.132141 344.501312,605.831360 332.107300,608.767456 
	C328.592621,609.600098 325.546051,608.417542 322.375061,607.746399 
	C287.226715,600.307556 252.087753,592.823669 216.964676,585.266296 
	C193.663803,580.252747 170.405960,575.039001 147.104721,570.027161 
	C120.886963,564.387939 94.636040,558.903076 68.411659,553.294373 
	C56.266041,550.696716 44.161476,547.906372 32.008961,545.342407 
	C29.530628,544.819458 28.666771,543.505249 28.683395,541.210144 
	C28.695467,539.544067 28.658310,537.877625 28.658319,536.211365 
	C28.659206,394.738159 28.659874,253.264938 28.677794,111.791725 
	C28.678106,109.324326 28.353617,106.808533 29.383039,103.807709 
	C39.435005,105.945221 49.419689,108.061630 59.401276,110.192574 
	C74.124168,113.335732 88.824944,116.587013 103.576187,119.590660 
	C109.558380,120.808754 109.646202,120.567657 109.650818,114.542931 
	C109.667168,93.214897 109.654663,71.886833 109.652817,50.072296 
M313.651733,439.503448 
	C313.650024,435.505188 313.460999,431.495728 313.699982,427.511902 
	C313.933594,423.616974 312.488739,422.223297 308.536255,422.278809 
	C295.541718,422.461395 282.542572,422.286163 269.546112,422.378479 
	C265.020386,422.410614 260.619904,421.706665 256.281036,420.644623 
	C222.563721,412.391571 201.474701,384.086151 200.756500,349.821075 
	C200.292191,327.669037 200.762894,305.498627 200.584854,283.338287 
	C200.550476,279.058350 201.694565,277.501404 206.191101,277.574310 
	C221.350372,277.820129 236.516235,277.678558 251.679443,277.637451 
	C253.465378,277.632599 255.342392,278.066498 257.654724,276.646057 
	C257.654724,271.878540 257.716248,266.752197 257.642517,261.627838 
	C257.463043,249.151001 261.065887,237.752274 267.273315,227.056290 
	C273.455536,216.403824 282.453430,208.211548 291.040283,199.648834 
	C294.864777,195.835083 298.576691,191.908463 302.721039,187.640335 
	C248.855301,156.512314 195.761887,125.830605 142.423004,95.007042 
	C141.087662,98.523170 141.357300,101.205414 141.357071,103.844139 
	C141.346497,222.151337 141.348114,340.458557 141.348740,458.765747 
	C141.348740,459.765533 141.410431,460.768799 141.347473,461.764404 
	C141.169403,464.579865 142.437607,466.451782 144.849487,467.836243 
	C157.961517,475.362610 171.033890,482.958038 184.129837,490.512482 
	C220.408035,511.439697 256.648621,532.432800 293.011627,553.211670 
	C299.543488,556.944092 305.744263,561.385498 313.651245,564.542725 
	C313.651245,522.701782 313.651245,481.602051 313.651733,439.503448 
M517.652039,437.500092 
	C517.652039,323.665771 517.652039,209.831451 517.652039,95.305901 
	C515.008240,96.342705 513.381409,96.759666 511.977509,97.565239 
	C496.855682,106.242584 481.755554,114.957970 466.675415,123.707626 
	C431.497467,144.118240 396.368530,164.613800 361.115631,184.893936 
	C357.182678,187.156479 357.012878,188.569321 360.043488,191.796387 
	C368.577942,200.884048 378.259369,208.842636 386.020477,218.696411 
	C398.177948,234.131851 403.716217,251.436935 401.427887,271.059479 
	C400.789154,276.536713 401.578705,277.646667 407.006866,277.655487 
	C422.168427,277.680084 437.332336,277.812378 452.490173,277.573700 
	C457.023163,277.502319 458.475098,278.819977 458.434784,283.470459 
	C458.221039,308.126984 458.347961,332.786407 458.311890,357.444733 
	C458.309235,359.253418 458.049652,361.078522 457.742706,362.867340 
	C455.006561,378.811584 447.743622,392.407379 435.906311,403.370178 
	C423.160797,415.174072 408.123291,421.993561 390.562073,422.303650 
	C377.737000,422.530151 364.904785,422.345886 352.075745,422.353668 
	C345.382446,422.357727 345.355042,422.366486 345.353699,428.977112 
	C345.345001,472.295929 345.339966,515.614746 345.382965,558.933472 
	C345.384674,560.653564 344.675293,562.611206 346.458588,564.227905 
	C347.339539,563.888855 348.315735,563.652893 349.150360,563.171509 
	C368.017365,552.290222 386.871338,541.386292 405.722778,530.478027 
	C441.698181,509.661041 477.639099,488.783936 513.699097,468.114563 
	C516.839905,466.314240 517.765747,464.304108 517.697632,460.991577 
	C517.543457,453.497284 517.650574,445.997620 517.652039,437.500092 
M177.044342,523.537231 
	C174.023376,521.797119 170.993759,520.071777 167.982864,518.314392 
	C150.908798,508.348938 134.049072,497.985596 116.648949,488.626770 
	C110.917351,485.543945 109.536064,482.153442 109.544899,476.186401 
	C109.700348,371.207855 109.656250,266.229004 109.654724,161.250244 
	C109.654709,160.083832 109.529518,158.903839 109.663757,157.753632 
	C110.032555,154.593597 108.285995,153.153183 105.539787,152.560928 
	C92.755920,149.803848 79.978081,147.016174 67.171257,144.369232 
	C60.378757,142.965378 60.346413,143.084869 60.346378,150.162750 
	C60.345810,270.471741 60.346748,390.780762 60.349571,511.089752 
	C60.349754,518.984680 60.365734,518.948853 67.868530,520.550476 
	C119.810730,531.638550 171.749893,542.740845 223.686951,553.852966 
	C224.903061,554.113159 226.180069,555.191833 227.473694,552.543823 
	C210.895676,543.014648 194.284531,533.466431 177.044342,523.537231 
M487.709015,520.276611 
	C468.611053,531.356323 449.513092,542.436096 430.415100,553.515808 
	C436.403534,553.477844 441.967651,552.618713 447.463043,551.439270 
	C495.409698,541.148865 543.343506,530.798889 591.282471,520.472473 
	C598.642151,518.887146 598.657593,518.900879 598.657898,511.052734 
	C598.662048,391.263123 598.662720,271.473511 598.663330,151.683914 
	C598.663330,150.351089 598.604187,149.016418 598.655273,147.685776 
	C598.793030,144.095108 597.500183,143.103622 593.778137,143.973648 
	C581.684204,146.800644 569.504761,149.262726 557.351929,151.835953 
	C547.784729,153.861710 549.377991,152.952332 549.374084,162.112228 
	C549.329285,267.740326 549.327820,373.368408 549.399292,478.996490 
	C549.401855,482.800354 548.691589,485.268738 544.952881,487.365417 
	C525.969910,498.011261 507.204346,509.044891 487.709015,520.276611 
M320.859558,312.611023 
	C322.985809,314.721619 325.126678,316.817719 327.233612,318.947418 
	C328.890686,320.622375 330.546509,321.084717 332.367218,319.182770 
	C342.478394,308.620667 354.213928,299.496918 362.693451,287.525635 
	C371.281830,275.400635 373.083313,261.997528 366.489227,248.023987 
	C363.013031,240.657516 357.605072,234.867325 351.971344,229.228867 
	C344.731659,221.983093 337.408203,214.820999 329.940308,207.444519 
	C319.943176,217.462601 310.794556,227.400558 300.829163,236.437866 
	C285.503357,250.336349 285.525574,278.223389 300.267609,291.992615 
	C307.196136,298.463928 313.688507,305.402161 320.859558,312.611023 
M385.383148,390.659027 
	C407.184479,391.414581 425.374878,373.243988 426.497253,353.718170 
	C427.251282,340.601105 426.553101,327.404785 426.710022,314.246399 
	C426.754089,310.551727 425.440460,309.231567 421.767792,309.290039 
	C411.442017,309.454468 401.112152,309.361694 390.783905,309.369965 
	C388.939087,309.371429 387.207977,309.444733 385.738953,310.951538 
	C373.536011,323.468475 361.306000,335.959381 349.015381,348.390137 
	C347.122528,350.304596 346.273682,352.346283 346.300476,355.044556 
	C346.401306,365.205231 346.492676,375.370911 346.266632,385.527557 
	C346.178741,389.476715 347.524689,390.780853 351.429596,390.714294 
	C362.420959,390.527008 373.417694,390.654419 385.383148,390.659027 
M302.550140,340.950012 
	C293.148224,331.088623 282.754456,322.188354 274.116943,311.584137 
	C273.039307,310.261139 271.670868,309.365143 269.836975,309.369080 
	C258.523041,309.393341 247.209122,309.402283 235.895203,309.401978 
	C233.444046,309.401917 232.240906,310.454956 232.332413,313.034393 
	C232.838333,327.296875 231.286972,341.601105 233.346985,355.836670 
	C236.088058,374.778595 251.850189,388.958832 269.372833,390.420624 
	C282.592133,391.523407 295.977051,390.586884 309.287140,390.693909 
	C312.545868,390.720093 313.727631,389.403137 313.670502,386.242920 
	C313.556244,379.922394 313.038727,373.525269 313.786804,367.291656 
	C315.088989,356.440216 312.165894,347.767914 302.550140,340.950012 
z"/>
</svg>